# xmcd
#
# Track frame offsets:
#	150
#	16395
#	29947
#	45348
#	59543
#	72432
#	84406
#	98755
#	111043
#	127912
#	141123
#	150331
#	164759
#	176925
#	190060
#	201398
#	219352
#	235541
#
# Disc length: 3342 seconds
#
# Revision: 0
# Processed by: cddbd v1.5.2PL0 Copyright (c) Steve Scherf et al.
# Submitted via: SynApp - FreeCDDB Version: 2.4
#
DISCID=fa0d0c12
DTITLE=Glenn Miller - The Swinging Big Band [CD 1)
DYEAR=1970
DGENRE=Swing
TTITLE0=In The Mood
TTITLE1=At Last
TTITLE2=Tuxedo Junction
TTITLE3=Don 't Sit Under The Apple Tree
TTITLE4=Little Brown Jug
TTITLE5=A Pink Cocktail For A Blue Lady
TTITLE6=Indian Summer
TTITLE7=Back To Back
TTITLE8=Georgia On My Mind
TTITLE9=Happy On Love
TTITLE10=Make Believe
TTITLE11=Papgan Love Song
TTITLE12=Moonlight Serenade
TTITLE13=April Playes The Fiddle
TTITLE14=The Jumpin' Jive
TTITLE15=In A Sentimental Mood
TTITLE16=Hallelujah
TTITLE17=High On Windy Hill
EXTD=
EXTT0=
EXTT1=
EXTT2=
EXTT3=
EXTT4=
EXTT5=
EXTT6=
EXTT7=
EXTT8=
EXTT9=
EXTT10=
EXTT11=
EXTT12=
EXTT13=
EXTT14=
EXTT15=
EXTT16=
EXTT17=
PLAYORDER=
